<svg xmlns="http://www.w3.org/2000/svg" viewBox="0 0 1254 1254">
  <g transform="matrix(1 0 0 -1 241.00 939.50)" fill="#ff4200">
    <path d="M120 48C120 64 127 88 142 141L257 554C265 582 278 594 310 601C325 604 332 606 332 616C332 625 326 629 314 629C295 629 271 625 227 625C182 625 160 629 138 629C126 629 116 626 116 615C116 604 125 603 139 600C160 597 169 592 169 576C169 565 165 553 155 518L30 70C20 36 10 28 -25 25C-40 23 -50 19 -50 7C-50 -1 -41 -4 -30 -4C-13 -4 6 0 61 0C112 0 131 -4 151 -4C166 -4 177 -1 177 10C177 21 170 23 148 26C132 27 120 34 120 47Z"/>
    <path d="M822 500C822 537 813 576 782 600C754 622 717 629 678 629C636 629 587 625 542 625C497 625 461 629 439 629C425 629 418 624 418 616C418 605 427 602 438 601C462 598 474 596 474 575C474 569 468 548 460 517C434 425 389 270 337 79C327 41 317 28 287 25C262 22 251 21 251 8C251 -1 259 -4 272 -4C289 -4 310 0 370 0C436 0 460 -4 476 -4C487 -4 496 -1 496 9C496 21 485 22 464 24C441 27 427 31 427 55C427 63 430 76 438 107C447 144 463 196 483 269H524C597 270 667 279 723 318C796 368 822 448 822 499ZM725 521C725 472 704 400 661 352C619 308 574 297 510 297C494 297 492 300 494 307C515 386 547 496 570 583C575 598 577 600 628 600C699 600 725 575 725 522Z"/>
  </g>
</svg>